999
DXF file: C:\inetpub\wwwroot\eng-serve\buildlog\makerslide\drawings\makerslide.dxf
999
Pro/ENGINEER 2010180 by Parametric Technology Corporation
  0
SECTION
  2
HEADER
  9
$EXTMAX
 10
8.5
 20
11.0
 30
0.0
  9
$EXTMIN
 10
0.0
 20
0.0
 30
0.0
  9
$LIMMIN
 10
0.0
 20
0.0
  9
$LIMMAX
 10
8.5
 20
11.0
  9
$VIEWCTR
 10
4.25
 20
5.5
  9
$VIEWSIZE
 40
11.0
  9
$CLAYER
  8
0
  9
$LTSCALE
 40
0.717037037
  9
$CELTYPE
  6
BYLAYER
  9
$DIMSCALE
 40
1.0
  9
$DIMASZ
 40
0.1875
  9
$DIMEXO
 40
0.0814814815
  9
$DIMDLI
 40
0.4954074074
  9
$DIMEXE
 40
0.2346666667
  9
$DIMCEN
 40
0.1173333333
  9
$DIMLFAC
 40
0.5
  9
$DIMBLK
  1
_FILLED
  9
$DIMTXT
 40
0.15625
  9
$PDMODE
 70
3
  9
$PDSIZE
 40
0.3125
  9
$TILEMODE
 70
1
  0
ENDSEC
  0
SECTION
  2
TABLES
  0
TABLE
  2
LTYPE
 70
6
  0
LTYPE
  2
BYBLOCK
 70
0
  3

 72
65
 73
0
 40
0.0
  0
LTYPE
  2
BYLAYER
 70
0
  3

 72
65
 73
0
 40
0.0
  0
LTYPE
  2
CONTINUOUS
 70
64
  3
Solid line
 72
65
 73
0
 40
0.0
  0
LTYPE
  2
CENTER
 70
64
  3
____ _ ____ _ ____ _ ____ _ ____ _ ____ _ ____
 72
65
 73
4
 40
0.6
 49
0.375
 49
-0.075
 49
0.075
 49
-0.075
  0
LTYPE
  2
HIDDEN
 70
64
  3
- - - - - - - - - - - - - - - - - - - -
 72
65
 73
2
 40
0.2
 49
0.1
 49
-0.1
  0
LTYPE
  2
PHANTOM
 70
64
  3
_____ _ _ _____ _ _ _____ _ _ _____
 72
65
 73
6
 40
0.8
 49
0.45
 49
-0.05
 49
0.1
 49
-0.05
 49
0.1
 49
-0.05
  0
LTYPE
  2
DOT
 70
64
  3
. . . . . . . . . . . . . . . . . . . .
 72
65
 73
2
 40
0.2
 49
0.1
 49
-0.1
  0
LTYPE
  2
DASHED
 70
64
  3
- - - - - - - - - - - - - - - - - - - -
 72
65
 73
2
 40
0.2
 49
0.1
 49
-0.1
  0
ENDTAB
  0
TABLE
  2
LAYER
 70
36
  0
LAYER
  2
0
 70
0
 62
7
  6
CONTINUOUS
  0
LAYER
  2
DEFAULT_1
 70
0
 62
7
  6
CENTER
  0
LAYER
  2
DEFAULT_2
 70
0
 62
8
  6
HIDDEN
  0
LAYER
  2
DEFAULT_3
 70
0
 62
7
  6
PHANTOM
  0
LAYER
  2
COSMETIC
 70
0
 62
7
  6
CONTINUOUS
  0
LAYER
  2
DATUM_PLANES
 70
0
 62
7
  6
CONTINUOUS
  0
ENDTAB
  0
TABLE
  2
STYLE
 70
1
  0
STYLE
  2
STANDARD
 70
0
 40
0.0
 41
1.0
 50
0.0
 71
0
 42
0.2
  3
veramono.ttf
  4

  0
STYLE
  2
TEXTSTYLE_1
 70
0
 40
0.0
 41
0.8
 50
0.0
 71
0
 42
0.2
  3
gdt
  4

  0
ENDTAB
  0
ENDSEC
  0
SECTION
  2
BLOCKS
  0
BLOCK
  8
0
  2
_FILLED
 70
64
 10
0.0
 20
0.0
  0
SOLID
  8
0
  6
BYBLOCK
 62
0
 10
0.0
 20
0.0
 11
-1.0
 21
0.1666666667
 12
-1.0
 22
-0.1666666667
 13
-1.0
 23
-0.1666666667
  0
ENDBLK
  8
0
  6
BYBLOCK
 62
0
  0
BLOCK
  8
0
 62
2
  6
CONTINUOUS
  2
*D0
 70
65
 10
0.0
 20
0.0
  0
TEXT
  8
0
 62
2
  6
CONTINUOUS
 10
5.6986401919
 20
5.756308926
  7
STANDARD
 40
0.15625
  1
46.35
 41
1.0
 72
1
 11
6.022014734
 21
5.756308926
  0
TEXT
  8
0
 62
2
  6
CONTINUOUS
 10
5.1812409245
 20
5.521933926
  7
STANDARD
 40
0.15625
  1
Virtual Point
 41
1.0
 72
1
 11
6.022014734
 21
5.521933926
  0
LINE
  8
0
 62
2
  6
CONTINUOUS
 10
5.0524545854
 20
7.4982205572
 11
6.147014734
 21
7.4982205572
  0
LINE
  8
0
 62
2
  6
CONTINUOUS
 10
5.0524545854
 20
3.848614258
 11
6.147014734
 21
3.848614258
  0
LINE
  8
0
 62
2
  6
CONTINUOUS
 10
6.022014734
 20
7.4982205572
 11
6.022014734
 21
5.990683926
  0
LINE
  8
0
 62
2
  6
CONTINUOUS
 10
6.022014734
 20
3.848614258
 11
6.022014734
 21
5.443808926
  0
INSERT
  8
0
 62
2
  6
CONTINUOUS
  2
_FILLED
 10
6.022014734
 20
7.4982205572
 41
0.1875
 42
0.1875
 43
0.1875
 50
90.0
  0
INSERT
  8
0
 62
2
  6
CONTINUOUS
  2
_FILLED
 10
6.022014734
 20
3.848614258
 41
0.1875
 42
0.1875
 43
0.1875
 50
270.0
  0
ENDBLK
  8
0
  6
BYBLOCK
 62
0
  0
BLOCK
  8
0
 62
2
  6
CONTINUOUS
  2
*D1
 70
65
 10
0.0
 20
0.0
  0
TEXT
  8
0
 62
2
  6
CONTINUOUS
 10
4.0732031938
 20
3.2806766589
  7
STANDARD
 40
0.15625
  1
20
 41
1.0
 72
1
 11
4.2025530106
 21
3.2806766589
  0
LINE
  8
0
 62
2
  6
CONTINUOUS
 10
4.9899545854
 20
4.036114258
 11
4.9899545854
 21
3.2338016589
  0
LINE
  8
0
 62
2
  6
CONTINUOUS
 10
3.4151514358
 20
4.1148544155
 11
3.4151514358
 21
3.2338016589
  0
LINE
  8
0
 62
2
  6
CONTINUOUS
 10
4.9899545854
 20
3.3588016589
 11
4.4100278275
 21
3.3588016589
  0
LINE
  8
0
 62
2
  6
CONTINUOUS
 10
3.4151514358
 20
3.3588016589
 11
3.9950781938
 21
3.3588016589
  0
INSERT
  8
0
 62
2
  6
CONTINUOUS
  2
_FILLED
 10
4.9899545854
 20
3.3588016589
 41
0.1875
 42
0.1875
 43
0.1875
  0
INSERT
  8
0
 62
2
  6
CONTINUOUS
  2
_FILLED
 10
3.4151514358
 20
3.3588016589
 41
0.1875
 42
0.1875
 43
0.1875
 50
180.0
  0
ENDBLK
  8
0
  6
BYBLOCK
 62
0
  0
BLOCK
  8
0
 62
2
  6
CONTINUOUS
  2
*D2
 70
65
 10
0.0
 20
0.0
  0
TEXT
  8
0
 62
2
  6
CONTINUOUS
 10
2.7956688601
 20
5.5952924076
  7
STANDARD
 40
0.15625
  1
40
 41
1.0
 72
1
 11
2.925018677
 21
5.5952924076
  0
LINE
  8
0
 62
2
  6
CONTINUOUS
 10
3.4313915933
 20
4.098614258
 11
2.800018677
 21
4.098614258
  0
LINE
  8
0
 62
2
  6
CONTINUOUS
 10
3.4313915933
 20
7.2482205572
 11
2.800018677
 21
7.2482205572
  0
LINE
  8
0
 62
2
  6
CONTINUOUS
 10
2.925018677
 20
4.098614258
 11
2.925018677
 21
5.5171674076
  0
LINE
  8
0
 62
2
  6
CONTINUOUS
 10
2.925018677
 20
7.2482205572
 11
2.925018677
 21
5.8296674076
  0
INSERT
  8
0
 62
2
  6
CONTINUOUS
  2
_FILLED
 10
2.925018677
 20
4.098614258
 41
0.1875
 42
0.1875
 43
0.1875
 50
270.0
  0
INSERT
  8
0
 62
2
  6
CONTINUOUS
  2
_FILLED
 10
2.925018677
 20
7.2482205572
 41
0.1875
 42
0.1875
 43
0.1875
 50
90.0
  0
ENDBLK
  8
0
  6
BYBLOCK
 62
0
  0
BLOCK
  8
0
 62
2
  6
CONTINUOUS
  2
*D3
 70
65
 10
0.0
 20
0.0
  0
TEXT
  8
0
 62
2
  6
CONTINUOUS
 10
5.5832137631
 20
7.8812163166
  7
STANDARD
 40
0.15625
  1
4.75
 41
1.0
 72
0
  0
LINE
  8
0
 62
2
  6
CONTINUOUS
 10
5.1769624594
 20
7.3574050626
 11
5.1769624594
 21
8.0843413166
  0
LINE
  8
0
 62
2
  6
CONTINUOUS
 10
4.8029467114
 20
7.3574050626
 11
4.8029467114
 21
8.0843413166
  0
LINE
  8
0
 62
2
  6
CONTINUOUS
 10
5.1769624594
 20
7.9593413166
 11
5.5050887631
 21
7.9593413166
  0
LINE
  8
0
 62
2
  6
CONTINUOUS
 10
4.8029467114
 20
7.9593413166
 11
4.3029467114
 21
7.9593413166
  0
INSERT
  8
0
 62
2
  6
CONTINUOUS
  2
_FILLED
 10
5.1769624594
 20
7.9593413166
 41
0.1875
 42
0.1875
 43
0.1875
 50
180.0
  0
INSERT
  8
0
 62
2
  6
CONTINUOUS
  2
_FILLED
 10
4.8029467114
 20
7.9593413166
 41
0.1875
 42
0.1875
 43
0.1875
  0
ENDBLK
  8
0
  6
BYBLOCK
 62
0
  0
BLOCK
  8
0
 62
2
  6
CONTINUOUS
  2
*D4
 70
65
 10
0.0
 20
0.0
  0
TEXT
  8
0
 62
2
  6
CONTINUOUS
 10
2.2063415497
 20
6.3826939824
  7
STANDARD
 40
0.15625
  1
6
 41
1.0
 72
1
 11
2.2710164581
 21
6.3826939824
  0
LINE
  8
0
 62
2
  6
CONTINUOUS
 10
3.3762734831
 20
6.22459851
 11
2.1460164581
 21
6.22459851
  0
LINE
  8
0
 62
2
  6
CONTINUOUS
 10
3.3762734831
 20
6.6970394549
 11
2.1460164581
 21
6.6970394549
  0
LINE
  8
0
 62
2
  6
CONTINUOUS
 10
2.2710164581
 20
6.22459851
 11
2.2710164581
 21
5.72459851
  0
LINE
  8
0
 62
2
  6
CONTINUOUS
 10
2.2710164581
 20
6.6970394549
 11
2.2710164581
 21
7.1970394549
  0
INSERT
  8
0
 62
2
  6
CONTINUOUS
  2
_FILLED
 10
2.2710164581
 20
6.22459851
 41
0.1875
 42
0.1875
 43
0.1875
 50
90.0
  0
INSERT
  8
0
 62
2
  6
CONTINUOUS
  2
_FILLED
 10
2.2710164581
 20
6.6970394549
 41
0.1875
 42
0.1875
 43
0.1875
 50
270.0
  0
ENDBLK
  8
0
  6
BYBLOCK
 62
0
  0
BLOCK
  8
0
 62
2
  6
CONTINUOUS
  2
*D5
 70
65
 10
0.0
 20
0.0
  0
TEXT
  8
0
 62
2
  6
CONTINUOUS
 10
2.5793353688
 20
7.9464879832
  7
TEXTSTYLE_1
 40
0.15625
  1
n
 41
1.0
 72
2
 11
2.7876687021
 21
7.9464879832
  0
TEXT
  8
0
 62
2
  6
CONTINUOUS
 10
2.7876687021
 20
7.9464879832
  7
STANDARD
 40
0.15625
  1
4.2
 41
1.0
 72
2
 11
3.1757181527
 21
7.9464879832
  0
TEXT
  8
0
 62
2
  6
CONTINUOUS
 10
0.4593719988
 20
7.7121129832
  7
STANDARD
 40
0.15625
  1
(5mm x .8 Pilot Hole)
 41
1.0
 72
2
 11
3.1757181527
 21
7.7121129832
  0
LINE
  8
0
 62
2
  6
CONTINUOUS
 10
4.1289880556
 20
6.6089076453
 11
3.4257181527
 21
8.0246129832
  0
LINE
  8
0
 62
2
  6
CONTINUOUS
 10
3.4257181527
 20
8.0246129832
 11
3.2538431527
 21
8.0246129832
  0
INSERT
  8
0
 62
2
  6
CONTINUOUS
  2
_FILLED
 10
4.1289880556
 20
6.6089076453
 41
0.1875
 42
0.1875
 43
0.1875
 50
296.4164818452
  0
ENDBLK
  8
0
  6
BYBLOCK
 62
0
  0
ENDSEC
  0
SECTION
  2
ENTITIES
  0
DIMENSION
  8
0
 62
2
  6
CONTINUOUS
  2
*D0
 10
6.022014734
 20
3.848614258
 11
5.1812409245
 21
5.717246426
 70
128
 13
5.0524545854
 23
7.4982205572
 14
5.0524545854
 24
3.848614258
 50
270.0
  0
DIMENSION
  8
0
 62
2
  6
CONTINUOUS
  2
*D1
 10
3.4151514358
 20
3.3588016589
 11
4.0732031938
 21
3.3588016589
 70
128
 13
4.9899545854
 23
4.036114258
 14
3.4151514358
 24
4.1148544155
 50
180.0
  0
DIMENSION
  8
0
 62
2
  6
CONTINUOUS
  2
*D2
 10
2.925018677
 20
7.2482205572
 11
2.7956688601
 21
5.6734174076
 70
128
 13
3.4313915933
 23
4.098614258
 14
3.4313915933
 24
7.2482205572
 50
90.0
  0
DIMENSION
  8
0
 62
2
  6
CONTINUOUS
  2
*D3
 10
4.8029467114
 20
7.9593413166
 11
5.8419133968
 21
7.9593413166
 70
128
 13
5.1769624594
 23
7.3574050626
 14
4.8029467114
 24
7.3574050626
 50
180.0
  0
DIMENSION
  8
0
 62
2
  6
CONTINUOUS
  2
*D4
 10
2.2710164581
 20
6.6970394549
 11
2.2063415497
 21
6.4608189824
 70
128
 13
3.3762734831
 23
6.22459851
 14
3.3762734831
 24
6.6970394549
 50
90.0
  0
DIMENSION
  8
0
 62
2
  6
CONTINUOUS
  2
*D5
 10
4.1289880556
 20
6.6089076453
 11
0.2653472735
 21
7.9074254832
 70
131
 15
4.2761179657
 25
6.3127303196
  0
LINE
  8
0
 62
7
  6
CONTINUOUS
 10
0.0
 20
0.0
 11
8.5
 21
0.0
  0
LINE
  8
0
 62
7
  6
CONTINUOUS
 10
0.0
 20
0.0
 11
0.0
 21
11.0
  0
LINE
  8
0
 62
7
  6
CONTINUOUS
 10
8.5
 20
0.0
 11
8.5
 21
11.0
  0
LINE
  8
0
 62
7
  6
CONTINUOUS
 10
0.0
 20
11.0
 11
8.5
 21
11.0
  0
LINE
  8
0
 62
7
  6
CONTINUOUS
 10
5.1769624594
 20
4.098614258
 11
4.9899545854
 21
4.098614258
  0
LINE
  8
0
 62
7
  6
CONTINUOUS
 10
3.4938915933
 20
4.098614258
 11
3.9427104909
 21
4.098614258
  0
LINE
  8
0
 62
7
  6
CONTINUOUS
 10
4.4623955303
 20
4.098614258
 11
4.7635766327
 21
4.098614258
  0
LINE
  8
0
 62
7
  6
CONTINUOUS
 10
4.6749939555
 20
4.256094573
 11
4.4387734831
 21
4.256094573
  0
LINE
  8
0
 62
7
  6
CONTINUOUS
 10
3.9663325382
 20
4.256094573
 11
3.7301120657
 21
4.256094573
  0
LINE
  8
0
 62
7
  6
CONTINUOUS
 10
4.8324742705
 20
4.4135748879
 11
4.7585105045
 21
4.4135748879
  0
LINE
  8
0
 62
7
  6
CONTINUOUS
 10
3.6465955168
 20
4.4135748879
 11
3.5726317508
 21
4.4135748879
  0
LINE
  8
0
 62
7
  6
CONTINUOUS
 10
3.9711089297
 20
4.5710552029
 11
4.1789309634
 21
4.5710552029
  0
LINE
  8
0
 62
7
  6
CONTINUOUS
 10
4.2261750579
 20
4.5710552029
 11
4.4339970916
 21
4.5710552029
  0
LINE
  8
0
 62
7
  6
CONTINUOUS
 10
3.5726317508
 20
4.6497953604
 11
3.4387734831
 21
4.6497953604
  0
LINE
  8
0
 62
7
  6
CONTINUOUS
 10
3.4151514358
 20
7.1694803997
 11
3.4151514358
 21
6.7206615021
  0
LINE
  8
0
 62
7
  6
CONTINUOUS
 10
3.4151514358
 20
6.2009764627
 11
3.4151514358
 21
5.1458583525
  0
LINE
  8
0
 62
7
  6
CONTINUOUS
 10
3.4151514358
 20
4.6261733131
 11
3.4151514358
 21
4.1773544155
  0
LINE
  8
0
 62
7
  6
CONTINUOUS
 10
4.2261750579
 20
6.7757796123
 11
4.2025530106
 21
6.7521575651
  0
LINE
  8
0
 62
7
  6
CONTINUOUS
 10
3.9112144279
 20
6.4608189824
 11
3.8875923807
 21
6.4371969352
  0
LINE
  8
0
 62
7
  6
CONTINUOUS
 10
4.8144779405
 20
7.3227439123
 11
4.9621157358
 21
7.4703817076
  0
LINE
  8
0
 62
7
  6
CONTINUOUS
 10
3.8875923807
 20
4.9096378801
 11
3.9112144279
 21
4.8860158328
  0
LINE
  8
0
 62
7
  6
CONTINUOUS
 10
4.2025530106
 20
4.5946772501
 11
4.2261750579
 21
4.5710552029
  0
LINE
  8
0
 62
7
  6
CONTINUOUS
 10
4.8144779405
 20
4.0240909029
 11
4.9621157358
 21
3.8764531077
  0
LINE
  8
0
 62
7
  6
CONTINUOUS
 10
3.5726317508
 20
4.4135748879
 11
3.5726317508
 21
4.6497953604
  0
LINE
  8
0
 62
7
  6
CONTINUOUS
 10
3.5726317508
 20
5.1222363053
 11
3.5726317508
 21
5.3584567777
  0
LINE
  8
0
 62
7
  6
CONTINUOUS
 10
3.5726317508
 20
5.4765670139
 11
3.5726317508
 21
5.8702678013
  0
LINE
  8
0
 62
7
  6
CONTINUOUS
 10
3.5726317508
 20
5.9883780375
 11
3.5726317508
 21
6.22459851
  0
LINE
  8
0
 62
7
  6
CONTINUOUS
 10
3.5726317508
 20
6.6970394549
 11
3.5726317508
 21
6.9332599273
  0
LINE
  8
0
 62
7
  6
CONTINUOUS
 10
4.6749939555
 20
7.0167764763
 11
4.4339970916
 21
6.7757796123
  0
LINE
  8
0
 62
7
  6
CONTINUOUS
 10
3.8875923807
 20
6.2293749015
 11
3.6465955168
 21
5.9883780375
  0
LINE
  8
0
 62
7
  6
CONTINUOUS
 10
3.6465955168
 20
5.3584567777
 11
3.8875923807
 21
5.1174599138
  0
LINE
  8
0
 62
7
  6
CONTINUOUS
 10
4.4339970916
 20
4.5710552029
 11
4.6749939555
 21
4.330058339
  0
LINE
  8
0
 62
7
  6
CONTINUOUS
 10
3.7301120657
 20
4.256094573
 11
3.7301120657
 21
4.330058339
  0
LINE
  8
0
 62
7
  6
CONTINUOUS
 10
3.7301120657
 20
7.0167764763
 11
3.7301120657
 21
7.0907402423
  0
LINE
  8
0
 62
7
  6
CONTINUOUS
 10
3.6955183785
 20
5.8702678013
 11
3.9711089297
 21
6.1458583525
  0
LINE
  8
0
 62
7
  6
CONTINUOUS
 10
4.5175136405
 20
6.6922630634
 11
4.7585105045
 21
6.9332599273
  0
LINE
  8
0
 62
7
  6
CONTINUOUS
 10
3.4387734831
 20
5.1222363053
 11
3.5726317508
 21
5.1222363053
  0
LINE
  8
0
 62
7
  6
CONTINUOUS
 10
4.7585105045
 20
4.4135748879
 11
4.5175136405
 21
4.6545717519
  0
LINE
  8
0
 62
7
  6
CONTINUOUS
 10
3.9711089297
 20
5.2009764627
 11
3.6955183785
 21
5.4765670139
  0
LINE
  8
0
 62
7
  6
CONTINUOUS
 10
3.8875923807
 20
6.6922630634
 11
3.8875923807
 21
6.4844410297
  0
LINE
  8
0
 62
7
  6
CONTINUOUS
 10
3.8875923807
 20
6.4371969352
 11
3.8875923807
 21
6.2293749015
  0
LINE
  8
0
 62
7
  6
CONTINUOUS
 10
3.8875923807
 20
5.1174599138
 11
3.8875923807
 21
4.9096378801
  0
LINE
  8
0
 62
7
  6
CONTINUOUS
 10
3.8875923807
 20
4.8623937856
 11
3.8875923807
 21
4.6545717519
  0
LINE
  8
0
 62
7
  6
CONTINUOUS
 10
4.4938915933
 20
6.4608189824
 11
4.5175136405
 21
6.4844410297
  0
LINE
  8
0
 62
7
  6
CONTINUOUS
 10
4.4339970916
 20
5.2009764627
 11
3.9711089297
 21
5.2009764627
  0
LINE
  8
0
 62
7
  6
CONTINUOUS
 10
3.9663325382
 20
4.1222363053
 11
3.9663325382
 21
4.256094573
  0
LINE
  8
0
 62
7
  6
CONTINUOUS
 10
3.9663325382
 20
7.0907402423
 11
3.9663325382
 21
7.2245985102
  0
LINE
  8
0
 62
7
  6
CONTINUOUS
 10
3.5726317508
 20
5.3584567777
 11
3.6465955168
 21
5.3584567777
  0
LINE
  8
0
 62
7
  6
CONTINUOUS
 10
4.7585105045
 20
5.3584567777
 11
4.8324742705
 21
5.3584567777
  0
LINE
  8
0
 62
7
  6
CONTINUOUS
 10
4.8324742705
 20
5.4765670139
 11
4.7095876428
 21
5.4765670139
  0
LINE
  8
0
 62
7
  6
CONTINUOUS
 10
3.6955183785
 20
5.4765670139
 11
3.5726317508
 21
5.4765670139
  0
LINE
  8
0
 62
7
  6
CONTINUOUS
 10
4.9663325382
 20
4.8860158328
 11
4.9899545854
 21
4.8623937856
  0
LINE
  8
0
 62
7
  6
CONTINUOUS
 10
4.4387734831
 20
7.22459851
 11
4.4387734831
 21
7.0907402423
  0
LINE
  8
0
 62
7
  6
CONTINUOUS
 10
4.4387734831
 20
4.256094573
 11
4.4387734831
 21
4.1222363053
  0
LINE
  8
0
 62
7
  6
CONTINUOUS
 10
4.5175136405
 20
4.6545717519
 11
4.5175136405
 21
5.1174599138
  0
LINE
  8
0
 62
7
  6
CONTINUOUS
 10
4.5175136405
 20
6.2293749015
 11
4.5175136405
 21
6.4371969352
  0
LINE
  8
0
 62
7
  6
CONTINUOUS
 10
4.5175136405
 20
6.4844410297
 11
4.5175136405
 21
6.6922630634
  0
LINE
  8
0
 62
7
  6
CONTINUOUS
 10
3.9112144279
 20
4.8860158328
 11
3.8875923807
 21
4.8623937856
  0
LINE
  8
0
 62
7
  6
CONTINUOUS
 10
3.5726317508
 20
5.8702678013
 11
3.6955183785
 21
5.8702678013
  0
LINE
  8
0
 62
7
  6
CONTINUOUS
 10
4.7095876428
 20
5.8702678013
 11
4.8324742705
 21
5.8702678013
  0
LINE
  8
0
 62
7
  6
CONTINUOUS
 10
3.8875923807
 20
6.4844410297
 11
3.9112144279
 21
6.4608189824
  0
LINE
  8
0
 62
7
  6
CONTINUOUS
 10
4.6749939555
 20
7.0907402423
 11
4.6749939555
 21
7.0167764763
  0
LINE
  8
0
 62
7
  6
CONTINUOUS
 10
4.6749939555
 20
4.330058339
 11
4.6749939555
 21
4.256094573
  0
LINE
  8
0
 62
7
  6
CONTINUOUS
 10
4.8324742705
 20
5.9883780375
 11
4.7585105045
 21
5.9883780375
  0
LINE
  8
0
 62
7
  6
CONTINUOUS
 10
3.6465955168
 20
5.9883780375
 11
3.5726317508
 21
5.9883780375
  0
LINE
  8
0
 62
7
  6
CONTINUOUS
 10
4.8029467114
 20
4.0592441793
 11
4.8029467114
 21
4.0519297526
  0
LINE
  8
0
 62
7
  6
CONTINUOUS
 10
4.8029467114
 20
7.287590636
 11
4.8029467114
 21
7.2949050626
  0
LINE
  8
0
 62
7
  6
CONTINUOUS
 10
4.8324742705
 20
6.9332599273
 11
4.8324742705
 21
6.6970394549
  0
LINE
  8
0
 62
7
  6
CONTINUOUS
 10
4.8324742705
 20
6.22459851
 11
4.8324742705
 21
5.9883780375
  0
LINE
  8
0
 62
7
  6
CONTINUOUS
 10
4.8324742705
 20
5.8702678013
 11
4.8324742705
 21
5.4765670139
  0
LINE
  8
0
 62
7
  6
CONTINUOUS
 10
4.8324742705
 20
5.3584567777
 11
4.8324742705
 21
4.4135748879
  0
LINE
  8
0
 62
7
  6
CONTINUOUS
 10
4.7095876428
 20
5.4765670139
 11
4.4339970916
 21
5.2009764627
  0
LINE
  8
0
 62
7
  6
CONTINUOUS
 10
3.8875923807
 20
4.6545717519
 11
3.6465955168
 21
4.4135748879
  0
LINE
  8
0
 62
7
  6
CONTINUOUS
 10
3.7301120657
 20
4.330058339
 11
3.9711089297
 21
4.5710552029
  0
LINE
  8
0
 62
7
  6
CONTINUOUS
 10
4.5175136405
 20
5.1174599138
 11
4.7585105045
 21
5.3584567777
  0
LINE
  8
0
 62
7
  6
CONTINUOUS
 10
3.9711089297
 20
6.1458583525
 11
4.4339970916
 21
6.1458583525
  0
LINE
  8
0
 62
7
  6
CONTINUOUS
 10
4.9663325382
 20
6.22459851
 11
4.8324742705
 21
6.22459851
  0
LINE
  8
0
 62
7
  6
CONTINUOUS
 10
3.5726317508
 20
6.22459851
 11
3.4387734831
 21
6.22459851
  0
LINE
  8
0
 62
7
  6
CONTINUOUS
 10
3.6465955168
 20
6.9332599273
 11
3.8875923807
 21
6.6922630634
  0
LINE
  8
0
 62
7
  6
CONTINUOUS
 10
4.4339970916
 20
6.1458583525
 11
4.7095876428
 21
5.8702678013
  0
LINE
  8
0
 62
7
  6
CONTINUOUS
 10
4.7585105045
 20
5.9883780375
 11
4.5175136405
 21
6.2293749015
  0
LINE
  8
0
 62
7
  6
CONTINUOUS
 10
3.9711089297
 20
6.7757796123
 11
3.7301120657
 21
7.0167764763
  0
LINE
  8
0
 62
7
  6
CONTINUOUS
 10
4.9899545854
 20
4.098614258
 11
4.9899545854
 21
4.8623937856
  0
LINE
  8
0
 62
7
  6
CONTINUOUS
 10
4.9899545854
 20
4.9096378801
 11
4.9899545854
 21
6.2009764627
  0
LINE
  8
0
 62
7
  6
CONTINUOUS
 10
4.9899545854
 20
6.7206615021
 11
4.9899545854
 21
7.2482205572
  0
LINE
  8
0
 62
7
  6
CONTINUOUS
 10
4.1789309634
 20
4.5710552029
 11
4.2025530106
 21
4.5946772501
  0
LINE
  8
0
 62
7
  6
CONTINUOUS
 10
4.5175136405
 20
6.4371969352
 11
4.4938915933
 21
6.4608189824
  0
LINE
  8
0
 62
7
  6
CONTINUOUS
 10
4.2025530106
 20
6.7521575651
 11
4.1789309634
 21
6.7757796123
  0
LINE
  8
0
 62
7
  6
CONTINUOUS
 10
5.1769624594
 20
7.2949050626
 11
5.1769624594
 21
7.2482205572
  0
LINE
  8
0
 62
7
  6
CONTINUOUS
 10
5.1769624594
 20
4.0519297526
 11
5.1769624594
 21
4.098614258
  0
LINE
  8
0
 62
7
  6
CONTINUOUS
 10
4.9899545854
 20
4.9096378801
 11
4.9663325382
 21
4.8860158328
  0
LINE
  8
0
 62
7
  6
CONTINUOUS
 10
3.4387734831
 20
6.6970394549
 11
3.5726317508
 21
6.6970394549
  0
LINE
  8
0
 62
7
  6
CONTINUOUS
 10
4.8324742705
 20
6.6970394549
 11
4.9663325382
 21
6.6970394549
  0
LINE
  8
0
 62
7
  6
CONTINUOUS
 10
4.4339970916
 20
6.7757796123
 11
4.2261750579
 21
6.7757796123
  0
LINE
  8
0
 62
7
  6
CONTINUOUS
 10
4.1789309634
 20
6.7757796123
 11
3.9711089297
 21
6.7757796123
  0
LINE
  8
0
 62
7
  6
CONTINUOUS
 10
3.5726317508
 20
6.9332599273
 11
3.6465955168
 21
6.9332599273
  0
LINE
  8
0
 62
7
  6
CONTINUOUS
 10
4.7585105045
 20
6.9332599273
 11
4.8324742705
 21
6.9332599273
  0
LINE
  8
0
 62
7
  6
CONTINUOUS
 10
3.7301120657
 20
7.0907402423
 11
3.9663325382
 21
7.0907402423
  0
LINE
  8
0
 62
7
  6
CONTINUOUS
 10
4.4387734831
 20
7.0907402423
 11
4.6749939555
 21
7.0907402423
  0
LINE
  8
0
 62
7
  6
CONTINUOUS
 10
5.1769624594
 20
7.2482205572
 11
4.9899545854
 21
7.2482205572
  0
LINE
  8
0
 62
7
  6
CONTINUOUS
 10
4.7635766327
 20
7.2482205572
 11
4.4623955303
 21
7.2482205572
  0
LINE
  8
0
 62
7
  6
CONTINUOUS
 10
3.9427104909
 20
7.2482205572
 11
3.4938915933
 21
7.2482205572
  0
LINE
  8
0
 62
7
  6
CONTINUOUS
 10
5.0177934351
 20
3.8764531077
 11
5.1654312304
 21
4.0240909029
  0
LINE
  8
0
 62
7
  6
CONTINUOUS
 10
5.0177934351
 20
7.4703817076
 11
5.1654312304
 21
7.3227439123
  0
CIRCLE
  8
0
 62
7
  6
CONTINUOUS
 10
4.2025530106
 20
4.8860158328
 40
0.1653543307
  0
CIRCLE
  8
0
 62
7
  6
CONTINUOUS
 10
4.2025530106
 20
6.4608189824
 40
0.1653543307
  0
ARC
  8
0
 62
7
  6
CONTINUOUS
 10
3.4938915933
 20
7.1694803997
 40
0.0787401575
 50
90.0
 51
180.0
  0
ARC
  8
0
 62
7
  6
CONTINUOUS
 10
3.4938915933
 20
4.1773544155
 40
0.0787401575
 50
180.0
 51
270.0
  0
ARC
  8
0
 62
7
  6
CONTINUOUS
 10
4.7635766327
 20
7.287590636
 40
0.0393700787
 50
270.0
 51
360.0
  0
ARC
  8
0
 62
7
  6
CONTINUOUS
 10
4.7635766327
 20
4.0592441793
 40
0.0393700787
 50
0.0
 51
90.0
  0
ARC
  8
0
 62
7
  6
CONTINUOUS
 10
5.1375923807
 20
7.2949050626
 40
0.0393700787
 50
0.0
 51
45.0
  0
ARC
  8
0
 62
7
  6
CONTINUOUS
 10
4.9899545854
 20
7.4425428579
 40
0.0393700787
 50
44.9999999999
 51
135.0000000001
  0
ARC
  8
0
 62
7
  6
CONTINUOUS
 10
4.8423167901
 20
7.2949050626
 40
0.0393700787
 50
135.0
 51
180.0
  0
ARC
  8
0
 62
7
  6
CONTINUOUS
 10
4.8423167901
 20
4.0519297526
 40
0.0393700787
 50
180.0
 51
225.0
  0
ARC
  8
0
 62
7
  6
CONTINUOUS
 10
4.9899545854
 20
3.9042919573
 40
0.0393700787
 50
224.9999999999
 51
315.0000000001
  0
ARC
  8
0
 62
7
  6
CONTINUOUS
 10
5.1375923807
 20
4.0519297526
 40
0.0393700787
 50
315.0
 51
360.0
  0
ARC
  8
0
 62
7
  6
CONTINUOUS
 10
3.9427104908
 20
7.2245985099
 40
0.0236220473
 50
0.0000006403
 51
89.9999997865
  0
ARC
  8
0
 62
7
  6
CONTINUOUS
 10
4.9663325382
 20
6.2009764627
 40
0.0236220472
 50
0.0
 51
90.0
  0
ARC
  8
0
 62
7
  6
CONTINUOUS
 10
4.9663325382
 20
6.7206615021
 40
0.0236220472
 50
270.0
 51
360.0
  0
ARC
  8
0
 62
7
  6
CONTINUOUS
 10
4.4623955303
 20
7.22459851
 40
0.0236220472
 50
90.0
 51
180.0
  0
ARC
  8
0
 62
7
  6
CONTINUOUS
 10
3.4387734831
 20
6.7206615021
 40
0.0236220472
 50
180.0
 51
270.0
  0
ARC
  8
0
 62
7
  6
CONTINUOUS
 10
3.4387734831
 20
6.2009764627
 40
0.0236220472
 50
90.0
 51
180.0
  0
ARC
  8
0
 62
7
  6
CONTINUOUS
 10
3.4387734831
 20
5.1458583525
 40
0.0236220472
 50
180.0
 51
270.0
  0
ARC
  8
0
 62
7
  6
CONTINUOUS
 10
3.4387734831
 20
4.6261733131
 40
0.0236220472
 50
90.0
 51
180.0
  0
ARC
  8
0
 62
7
  6
CONTINUOUS
 10
3.9427104909
 20
4.1222363053
 40
0.0236220472
 50
270.0
 51
360.0
  0
ARC
  8
0
 62
7
  6
CONTINUOUS
 10
4.4623955303
 20
4.1222363053
 40
0.0236220472
 50
180.0
 51
270.0
  0
ENDSEC
  0
EOF
